<svg width="362" height="306" viewBox="0 0 362 306" fill="none" xmlns="http://www.w3.org/2000/svg">
<path d="M238.744 3.95874C184.667 -1.31706 130.59 1.3209 76.5128 0.00195312C64.6423 0.00195312 58.0476 3.95874 58.0476 17.1482C58.0476 73.8631 91.0214 123.983 156.969 135.854C166.202 137.173 168.839 131.897 171.477 123.983C174.115 113.432 176.753 104.199 179.391 91.0095C204.451 108.156 228.192 123.983 250.614 141.13C263.804 150.362 263.804 154.319 249.295 162.233C221.597 178.06 195.218 192.569 167.52 208.396C164.883 209.715 162.245 211.034 154.331 213.672C156.969 200.482 158.288 191.25 160.926 182.017C163.564 171.465 159.607 168.828 150.374 170.147C88.3835 175.422 19.7981 224.223 2.65176 284.895C-2.62404 303.36 -1.30513 305.998 18.4791 305.998C72.5561 305.998 126.633 305.998 180.71 305.998C226.873 305.998 270.399 291.49 306.01 261.154C341.622 232.137 357.449 193.888 361.406 147.724C368.001 61.9926 319.2 13.1914 238.744 3.95874Z" fill="#E51010"/>
</svg>
