<svg width="777" height="281" viewBox="0 0 777 281" fill="none" xmlns="http://www.w3.org/2000/svg">
<path d="M219.543 3.63357C169.883 -1.21126 120.224 1.21121 70.5644 0C59.6635 0 53.6076 3.63357 53.6076 15.7456C53.6076 67.8276 83.8877 113.853 144.448 124.754C152.927 125.965 155.349 121.121 157.771 113.854C160.194 104.164 162.616 95.6854 165.039 83.5733C188.052 99.319 209.853 113.853 230.444 129.599C242.556 138.078 242.556 141.711 229.233 148.978C203.797 163.513 179.573 176.836 154.138 191.371C151.715 192.582 149.293 193.793 142.026 196.216C144.448 184.103 145.659 175.625 148.082 167.147C150.504 157.457 146.871 155.035 138.392 156.246C81.4653 161.091 18.4826 205.905 2.7369 261.621C-2.10793 278.578 -0.896761 281 17.2713 281C66.9308 281 116.59 281 166.25 281C208.642 281 248.612 267.677 281.315 239.819C314.017 213.172 328.552 178.047 332.185 135.655C338.241 56.9267 293.427 12.112 219.543 3.63357Z" fill="#E51010"/>
<path d="M426.66 226.498C424.237 226.498 421.815 226.498 419.392 226.498C409.703 226.498 401.224 224.076 393.957 220.442C386.69 216.809 381.845 209.541 378.211 202.274C374.578 193.796 372.155 185.317 372.155 174.416V145.347H398.802V173.205C398.802 179.261 400.013 184.106 401.224 188.951C402.435 192.585 404.858 196.218 408.491 198.641C412.125 201.063 414.547 201.063 419.392 201.063C423.026 201.063 426.66 199.852 430.293 198.641C433.927 196.218 435.138 193.796 437.56 188.951C439.983 184.106 439.983 178.05 439.983 169.572V62.9854H466.629V169.572H481.164L487.22 171.994V191.373L481.164 193.796H465.418C464.207 198.641 462.996 202.274 460.573 205.908C456.94 213.175 450.884 218.02 444.828 221.654C438.772 224.076 432.716 226.498 426.66 226.498Z" fill="#E51010"/>
<path d="M479.953 193.794L473.897 191.372V171.992L479.953 169.57H498.121C494.487 163.514 492.065 156.247 492.065 148.979C492.065 140.501 493.276 133.234 496.91 125.966C500.543 118.699 505.388 113.854 511.444 110.221C517.5 106.587 524.768 104.165 533.246 104.165C541.724 104.165 548.992 106.587 555.048 110.221C561.104 113.854 565.949 119.91 569.582 127.178C573.216 134.445 574.427 142.923 572.005 152.613L568.371 169.57C572.005 169.57 574.427 169.57 575.638 169.57C580.483 168.359 585.328 165.936 588.961 162.303C592.595 158.669 593.806 156.247 595.017 152.613C596.229 148.979 596.229 145.346 595.017 140.501C593.806 135.656 591.384 133.234 587.75 128.389C584.117 124.755 575.638 118.699 561.104 107.798L573.216 85.9966C591.384 99.3199 602.285 107.798 605.918 112.643C613.186 119.91 618.03 127.178 620.453 134.445C622.875 142.923 624.086 150.191 621.664 158.669C621.664 161.091 620.453 162.303 620.453 164.725L621.664 165.936C624.086 168.359 627.72 169.57 633.776 169.57H637.41L643.466 171.992V191.372L637.41 193.794H628.931C620.453 193.794 614.397 192.583 608.341 188.949C607.13 187.738 604.707 186.527 603.496 185.316C598.651 188.949 593.806 191.372 587.75 192.583C584.117 193.794 579.272 193.794 575.638 193.794H479.953ZM541.724 169.57L546.569 148.979C547.78 141.712 547.78 136.867 545.358 133.234C542.936 129.6 539.302 128.389 534.457 128.389C530.823 128.389 528.401 129.6 525.979 130.811C523.556 132.022 522.345 134.445 521.134 138.079C519.923 141.712 518.711 145.346 518.711 148.979C518.711 156.247 519.923 161.091 523.556 164.725C527.19 168.359 532.035 169.57 539.302 169.57H541.724Z" fill="#E51010"/>
<path d="M650.733 169.572V164.727V153.826V106.589H677.379V153.826V169.572H687.069C691.914 169.572 695.548 168.361 697.97 165.939C699.181 164.727 700.392 163.516 700.392 162.305C701.604 159.883 701.604 157.46 701.604 153.826V106.589H728.25V153.826C728.25 159.882 729.461 163.516 730.673 165.939C731.884 168.361 734.306 169.572 737.94 169.572C741.573 169.572 743.996 168.361 746.418 165.939C748.841 163.516 750.052 159.882 750.052 153.826V106.589H776.698V153.826C775.487 165.939 771.854 175.628 765.798 182.895C759.742 190.163 750.052 193.796 739.151 193.796C730.673 193.796 724.617 192.585 719.772 188.951C714.927 186.529 713.716 184.107 712.504 184.107C712.504 185.318 708.871 186.529 704.026 190.163C699.181 193.796 693.125 195.008 685.858 195.008H633.776L626.509 192.585V173.206L633.776 170.783H650.733V169.572Z" fill="#E51010"/>
</svg>
